{
  "asset": { "version": "2.0", "generator": "mercs2-shipment-template placeholder" },
  "scene": 0,
  "scenes": [{ "nodes": [0] }],
  "nodes": [{ "mesh": 0, "name": "placeholder_cube" }],
  "meshes": [
    {
      "name": "placeholder_cube",
      "primitives": [{ "attributes": { "POSITION": 0 }, "mode": 4 }]
    }
  ],
  "accessors": [
    {
      "bufferView": 0,
      "componentType": 5126,
      "count": 36,
      "type": "VEC3",
      "min": [-0.5, -0.5, -0.5],
      "max": [0.5, 0.5, 0.5]
    }
  ],
  "bufferViews": [{ "buffer": 0, "byteOffset": 0, "byteLength": 432, "target": 34962 }],
  "buffers": [{ "uri": "model.bin", "byteLength": 432 }]
}
